<svg width="1168" height="473" viewBox="0 0 1168 473" fill="none" xmlns="http://www.w3.org/2000/svg">
<g opacity="0.27" filter="url(#filter0_f_711_118)">
<path fill-rule="evenodd" clip-rule="evenodd" d="M-31.3168 232.421L-60.0043 242.66V425.166V426.963V732.122H1317V426.963V425.166V181.225L1288.31 201.704C1259.62 222.182 1202.25 263.138 1144.87 273.377C1110.45 279.52 1076.02 274.606 1041.6 269.691C1018.65 266.414 995.696 263.138 972.746 263.138C915.371 263.138 857.996 283.616 800.621 304.094C743.246 324.572 685.871 345.05 628.496 350.17C571.121 355.289 513.746 345.05 456.371 309.214C432.464 294.282 408.558 274.906 384.652 255.53C351.183 228.403 317.714 201.277 284.246 186.345C226.871 160.747 169.496 170.986 112.121 186.345C54.7457 201.704 -2.62927 222.182 -31.3168 232.421Z" fill="url(#paint0_linear_711_118)"/>
<path fill-rule="evenodd" clip-rule="evenodd" d="M-31.3168 232.421L-60.0043 242.66V425.166V426.963V732.122H1317V426.963V425.166V181.225L1288.31 201.704C1259.62 222.182 1202.25 263.138 1144.87 273.377C1110.45 279.52 1076.02 274.606 1041.6 269.691C1018.65 266.414 995.696 263.138 972.746 263.138C915.371 263.138 857.996 283.616 800.621 304.094C743.246 324.572 685.871 345.05 628.496 350.17C571.121 355.289 513.746 345.05 456.371 309.214C432.464 294.282 408.558 274.906 384.652 255.53C351.183 228.403 317.714 201.277 284.246 186.345C226.871 160.747 169.496 170.986 112.121 186.345C54.7457 201.704 -2.62927 222.182 -31.3168 232.421Z" fill="url(#paint1_linear_711_118)"/>
<g filter="url(#filter1_f_711_118)">
<mask id="mask0_711_118" style="mask-type:alpha" maskUnits="userSpaceOnUse" x="-61" y="170" width="1378" height="563">
<mask id="path-2-inside-1_711_118" fill="white">
<path fill-rule="evenodd" clip-rule="evenodd" d="M-31.3168 232.421L-60.0043 242.66V425.166V426.963V732.122H1317V426.963V425.166V181.225L1288.31 201.704C1259.62 222.182 1202.25 263.138 1144.87 273.377C1110.45 279.52 1076.02 274.606 1041.6 269.691C1018.65 266.414 995.696 263.138 972.746 263.138C915.371 263.138 857.996 283.616 800.621 304.094C743.246 324.572 685.871 345.05 628.496 350.17C571.121 355.289 513.746 345.05 456.371 309.214C432.464 294.282 408.558 274.906 384.652 255.53C351.183 228.403 317.714 201.277 284.246 186.345C226.871 160.747 169.496 170.986 112.121 186.345C54.7457 201.704 -2.62927 222.182 -31.3168 232.421Z"/>
</mask>
<path fill-rule="evenodd" clip-rule="evenodd" d="M-31.3168 232.421L-60.0043 242.66V425.166V426.963V732.122H1317V426.963V425.166V181.225L1288.31 201.704C1259.62 222.182 1202.25 263.138 1144.87 273.377C1110.45 279.52 1076.02 274.606 1041.6 269.691C1018.65 266.414 995.696 263.138 972.746 263.138C915.371 263.138 857.996 283.616 800.621 304.094C743.246 324.572 685.871 345.05 628.496 350.17C571.121 355.289 513.746 345.05 456.371 309.214C432.464 294.282 408.558 274.906 384.652 255.53C351.183 228.403 317.714 201.277 284.246 186.345C226.871 160.747 169.496 170.986 112.121 186.345C54.7457 201.704 -2.62927 222.182 -31.3168 232.421Z" fill="url(#paint2_linear_711_118)"/>
<path d="M-60.0043 242.66L-60.3404 241.718L-61.0043 241.955V242.66H-60.0043ZM-60.0043 732.122H-61.0043V733.122H-60.0043V732.122ZM1317 732.122V733.122H1318V732.122H1317ZM1317 181.225H1318V179.283L1316.41 180.412L1317 181.225ZM1144.87 273.377L1145.05 274.361L1144.87 273.377ZM1041.6 269.691L1041.45 270.681L1041.6 269.691ZM628.496 350.17L628.407 349.174L628.496 350.17ZM456.371 309.214L456.901 308.366L456.371 309.214ZM384.652 255.53L385.282 254.753L384.652 255.53ZM284.246 186.345L283.838 187.258L284.246 186.345ZM112.121 186.345L112.379 187.311L112.121 186.345ZM-59.6681 243.602L-30.9806 233.363L-31.6529 231.479L-60.3404 241.718L-59.6681 243.602ZM-59.0043 425.166V242.66H-61.0043V425.166H-59.0043ZM-59.0043 426.963V425.166H-61.0043V426.963H-59.0043ZM-59.0043 732.122V426.963H-61.0043V732.122H-59.0043ZM1317 731.122H-60.0043V733.122H1317V731.122ZM1316 426.963V732.122H1318V426.963H1316ZM1316 425.166V426.963H1318V425.166H1316ZM1316 181.225V425.166H1318V181.225H1316ZM1288.89 202.517L1317.58 182.039L1316.41 180.412L1287.73 200.89L1288.89 202.517ZM1145.05 274.361C1202.68 264.076 1260.24 222.97 1288.89 202.517L1287.73 200.89C1259 221.393 1201.81 262.2 1144.7 272.393L1145.05 274.361ZM1041.45 270.681C1075.85 275.592 1110.44 280.538 1145.05 274.361L1144.7 272.393C1110.45 278.503 1076.19 273.62 1041.74 268.701L1041.45 270.681ZM972.746 264.138C995.613 264.138 1018.49 267.403 1041.45 270.681L1041.74 268.701C1018.8 265.426 995.779 262.138 972.746 262.138V264.138ZM800.957 305.036C858.369 284.545 915.575 264.138 972.746 264.138V262.138C915.166 262.138 857.623 282.687 800.285 303.152L800.957 305.036ZM628.585 351.166C686.11 346.033 743.608 325.505 800.957 305.036L800.285 303.152C742.884 323.64 685.632 344.068 628.407 349.174L628.585 351.166ZM455.841 310.062C513.418 346.025 571.015 356.303 628.585 351.166L628.407 349.174C571.227 354.276 514.073 344.076 456.901 308.366L455.841 310.062ZM384.022 256.307C407.917 275.674 431.873 295.091 455.841 310.062L456.901 308.366C433.056 293.472 409.199 274.138 385.282 254.753L384.022 256.307ZM283.838 187.258C317.163 202.126 350.524 229.156 384.022 256.307L385.282 254.753C351.843 227.651 318.266 200.428 284.653 185.432L283.838 187.258ZM112.379 187.311C169.731 171.959 226.804 161.813 283.838 187.258L284.653 185.432C226.937 159.682 169.261 170.014 111.862 185.379L112.379 187.311ZM-30.9806 233.363C-2.2913 223.123 55.0484 202.658 112.379 187.311L111.862 185.379C54.443 200.749 -2.96724 221.241 -31.6529 231.479L-30.9806 233.363Z" fill="white" mask="url(#path-2-inside-1_711_118)"/>
</mask>
<g mask="url(#mask0_711_118)">
<path d="M1262.86 109.042C1227.62 117.96 1158.12 156.802 1162.03 240.829C1166.92 345.862 1273.52 411.591 1300.18 510.679C1319.85 583.814 1317.06 766.987 1197.12 843.946" stroke="url(#paint3_linear_711_118)" stroke-width="7.78561"/>
<path d="M1212.78 127.946C1177.54 136.864 1108.04 175.707 1111.95 259.733C1116.83 364.767 1223.44 430.495 1250.09 529.583C1269.76 602.718 1266.97 785.891 1147.04 862.85" stroke="url(#paint4_linear_711_118)" stroke-width="7.78561"/>
<path d="M1162.03 145.832C1126.79 154.75 1057.29 193.593 1061.2 277.619C1066.08 382.653 1172.69 448.381 1199.34 547.469C1219.01 620.604 1216.22 803.777 1096.29 880.736" stroke="url(#paint5_linear_711_118)" stroke-width="7.78561"/>
<path d="M1110.6 162.605C1075.36 171.523 1005.85 210.366 1009.76 294.392C1014.65 399.426 1121.26 465.154 1147.91 564.243C1167.58 637.377 1164.79 820.551 1044.85 897.509" stroke="url(#paint6_linear_711_118)" stroke-width="7.78561"/>
<path d="M1058.46 178.134C1023.22 187.052 953.717 225.895 957.626 309.922C962.512 414.955 1069.12 480.683 1095.77 579.772C1115.44 652.906 1112.65 836.08 992.718 913.038" stroke="url(#paint7_linear_711_118)" stroke-width="7.78561"/>
<path d="M1005.6 192.258C970.36 201.176 900.858 240.019 904.767 324.045C909.653 429.079 1016.26 494.807 1042.91 593.895C1062.58 667.03 1059.79 850.203 939.859 927.162" stroke="url(#paint8_linear_711_118)" stroke-width="7.78561"/>
<path d="M952.022 204.774C916.782 213.692 847.28 252.534 851.189 336.561C856.075 441.595 962.682 507.323 989.334 606.411C1009.01 679.546 1006.21 862.719 886.281 939.678" stroke="url(#paint9_linear_711_118)" stroke-width="7.78561"/>
<path d="M897.713 215.42C862.474 224.338 792.972 263.18 796.881 347.207C801.767 452.24 908.374 517.969 935.026 617.057C954.697 690.192 951.905 873.365 831.972 950.324" stroke="url(#paint10_linear_711_118)" stroke-width="7.78561"/>
<path d="M842.713 223.869C807.474 232.787 737.972 271.63 741.881 355.657C746.767 460.69 853.374 526.419 880.026 625.507C899.697 698.641 896.905 881.815 776.973 958.773" stroke="url(#paint11_linear_711_118)" stroke-width="7.78561"/>
<path d="M787.1 229.701C751.861 238.619 682.359 277.462 686.268 361.488C691.154 466.522 797.761 532.25 824.413 631.339C844.084 704.473 841.292 887.647 721.359 964.605" stroke="url(#paint12_linear_711_118)" stroke-width="7.78561"/>
<path d="M731.049 232.392C695.81 241.31 626.308 280.153 630.217 364.179C635.103 469.213 741.71 534.941 768.362 634.029C788.033 707.164 785.241 890.338 665.309 967.296" stroke="url(#paint13_linear_711_118)" stroke-width="7.78561"/>
<path d="M674.905 231.298C639.666 240.216 570.164 279.058 574.073 363.085C578.959 468.118 685.566 533.847 712.217 632.935C731.888 706.069 729.097 889.243 609.164 966.202" stroke="url(#paint14_linear_711_118)" stroke-width="7.78561"/>
<path d="M619.253 225.672C584.013 234.59 514.511 273.432 518.42 357.459C523.306 462.492 629.913 528.221 656.565 627.309C676.236 700.443 673.445 883.617 553.512 960.576" stroke="url(#paint15_linear_711_118)" stroke-width="7.78561"/>
<path d="M565.034 214.76C529.795 223.678 460.293 262.521 464.202 346.548C469.088 451.581 575.695 517.309 602.347 616.398C622.018 689.532 619.226 872.706 499.293 949.664" stroke="url(#paint16_linear_711_118)" stroke-width="7.78561"/>
<path d="M504.28 195.042C469.04 203.96 399.539 242.802 403.448 326.829C408.334 431.863 514.941 497.591 541.592 596.679C561.263 669.814 558.472 852.987 438.539 929.946" stroke="url(#paint17_linear_711_118)" stroke-width="7.78561"/>
<path d="M452.222 179.367C416.982 188.285 347.48 227.127 351.389 311.154C356.275 416.187 462.882 481.916 489.534 581.004C509.205 654.139 506.414 837.312 386.481 914.271" stroke="url(#paint18_linear_711_118)" stroke-width="7.78561"/>
<path d="M398.601 166.942C363.361 175.86 293.86 214.703 297.768 298.729C302.655 403.763 409.262 469.491 435.913 568.58C455.584 641.714 452.793 824.888 332.86 901.846" stroke="url(#paint19_linear_711_118)" stroke-width="7.78561"/>
<path d="M343.781 157.846C308.541 166.764 239.039 205.607 242.948 289.634C247.834 394.667 354.441 460.396 381.093 559.484C400.764 632.618 397.973 815.792 278.04 892.75" stroke="url(#paint20_linear_711_118)" stroke-width="7.78561"/>
<path d="M288.16 152.078C252.92 160.996 183.418 199.838 187.327 283.865C192.213 388.898 298.82 454.627 325.472 553.715C345.143 626.849 342.351 810.023 222.419 886.982" stroke="url(#paint21_linear_711_118)" stroke-width="7.78561"/>
<path d="M232.097 149.564C196.858 158.482 127.356 197.325 131.265 281.352C136.151 386.385 242.758 452.114 269.41 551.202C289.081 624.336 286.289 807.51 166.356 884.468" stroke="url(#paint22_linear_711_118)" stroke-width="7.78561"/>
<path d="M175.941 150.177C140.701 159.095 71.1996 197.938 75.1085 281.965C79.9947 386.998 186.602 452.726 213.253 551.815C232.924 624.949 230.133 808.123 110.2 885.081" stroke="url(#paint23_linear_711_118)" stroke-width="7.78561"/>
<path d="M119.98 153.749C84.7406 162.666 15.2388 201.509 19.1477 285.536C24.0339 390.569 130.641 456.298 157.293 555.386C176.964 628.52 174.172 811.694 54.2392 888.652" stroke="url(#paint24_linear_711_118)" stroke-width="7.78561"/>
<path d="M64.4684 160.1C29.2289 169.018 -40.2729 207.861 -36.364 291.888C-31.4778 396.921 75.1292 462.65 101.781 561.738C121.452 634.872 118.66 818.046 -1.27248 895.004" stroke="url(#paint25_linear_711_118)" stroke-width="7.78561"/>
<path d="M9.60528 169.047C-25.6342 177.965 -95.136 216.807 -91.2271 300.834C-86.341 405.868 20.266 471.596 46.9177 570.684C66.5887 643.819 63.7972 826.992 -56.1356 903.951" stroke="url(#paint26_linear_711_118)" stroke-width="7.78561"/>
<path d="M-44.4336 180.418C-79.6731 189.336 -149.175 228.179 -145.266 312.205C-140.38 417.239 -33.7729 482.967 -7.12114 582.056C12.5498 655.19 9.75829 838.364 -110.175 915.322" stroke="url(#paint27_linear_711_118)" stroke-width="7.78561"/>
</g>
</g>
<mask id="mask1_711_118" style="mask-type:alpha" maskUnits="userSpaceOnUse" x="-61" y="170" width="1378" height="563">
<mask id="path-29-inside-2_711_118" fill="white">
<path fill-rule="evenodd" clip-rule="evenodd" d="M-31.3168 232.421L-60.0043 242.66V425.166V426.963V732.122H1317V426.963V425.166V181.225L1288.31 201.704C1259.62 222.182 1202.25 263.138 1144.87 273.377C1110.45 279.52 1076.02 274.606 1041.6 269.691C1018.65 266.414 995.696 263.138 972.746 263.138C915.371 263.138 857.996 283.616 800.621 304.094C743.246 324.572 685.871 345.05 628.496 350.17C571.121 355.289 513.746 345.05 456.371 309.214C432.464 294.282 408.558 274.906 384.652 255.53C351.183 228.403 317.714 201.277 284.246 186.345C226.871 160.747 169.496 170.986 112.121 186.345C54.7457 201.704 -2.62927 222.182 -31.3168 232.421Z"/>
</mask>
<path fill-rule="evenodd" clip-rule="evenodd" d="M-31.3168 232.421L-60.0043 242.66V425.166V426.963V732.122H1317V426.963V425.166V181.225L1288.31 201.704C1259.62 222.182 1202.25 263.138 1144.87 273.377C1110.45 279.52 1076.02 274.606 1041.6 269.691C1018.65 266.414 995.696 263.138 972.746 263.138C915.371 263.138 857.996 283.616 800.621 304.094C743.246 324.572 685.871 345.05 628.496 350.17C571.121 355.289 513.746 345.05 456.371 309.214C432.464 294.282 408.558 274.906 384.652 255.53C351.183 228.403 317.714 201.277 284.246 186.345C226.871 160.747 169.496 170.986 112.121 186.345C54.7457 201.704 -2.62927 222.182 -31.3168 232.421Z" fill="url(#paint28_linear_711_118)"/>
<path d="M-60.0043 242.66L-60.3404 241.718L-61.0043 241.955V242.66H-60.0043ZM-60.0043 732.122H-61.0043V733.122H-60.0043V732.122ZM1317 732.122V733.122H1318V732.122H1317ZM1317 181.225H1318V179.283L1316.41 180.412L1317 181.225ZM1144.87 273.377L1145.05 274.361L1144.87 273.377ZM1041.6 269.691L1041.45 270.681L1041.6 269.691ZM628.496 350.17L628.407 349.174L628.496 350.17ZM456.371 309.214L456.901 308.366L456.371 309.214ZM384.652 255.53L385.282 254.753L384.652 255.53ZM284.246 186.345L283.838 187.258L284.246 186.345ZM112.121 186.345L112.379 187.311L112.121 186.345ZM-59.6681 243.602L-30.9806 233.363L-31.6529 231.479L-60.3404 241.718L-59.6681 243.602ZM-59.0043 425.166V242.66H-61.0043V425.166H-59.0043ZM-59.0043 426.963V425.166H-61.0043V426.963H-59.0043ZM-59.0043 732.122V426.963H-61.0043V732.122H-59.0043ZM1317 731.122H-60.0043V733.122H1317V731.122ZM1316 426.963V732.122H1318V426.963H1316ZM1316 425.166V426.963H1318V425.166H1316ZM1316 181.225V425.166H1318V181.225H1316ZM1288.89 202.517L1317.58 182.039L1316.41 180.412L1287.73 200.89L1288.89 202.517ZM1145.05 274.361C1202.68 264.076 1260.24 222.97 1288.89 202.517L1287.73 200.89C1259 221.393 1201.81 262.2 1144.7 272.393L1145.05 274.361ZM1041.45 270.681C1075.85 275.592 1110.44 280.538 1145.05 274.361L1144.7 272.393C1110.45 278.503 1076.19 273.62 1041.74 268.701L1041.45 270.681ZM972.746 264.138C995.613 264.138 1018.49 267.403 1041.45 270.681L1041.74 268.701C1018.8 265.426 995.779 262.138 972.746 262.138V264.138ZM800.957 305.036C858.369 284.545 915.575 264.138 972.746 264.138V262.138C915.166 262.138 857.623 282.687 800.285 303.152L800.957 305.036ZM628.585 351.166C686.11 346.033 743.608 325.505 800.957 305.036L800.285 303.152C742.884 323.64 685.632 344.068 628.407 349.174L628.585 351.166ZM455.841 310.062C513.418 346.025 571.015 356.303 628.585 351.166L628.407 349.174C571.227 354.276 514.073 344.076 456.901 308.366L455.841 310.062ZM384.022 256.307C407.917 275.674 431.873 295.091 455.841 310.062L456.901 308.366C433.056 293.472 409.199 274.138 385.282 254.753L384.022 256.307ZM283.838 187.258C317.163 202.126 350.524 229.156 384.022 256.307L385.282 254.753C351.843 227.651 318.266 200.428 284.653 185.432L283.838 187.258ZM112.379 187.311C169.731 171.959 226.804 161.813 283.838 187.258L284.653 185.432C226.937 159.682 169.261 170.014 111.862 185.379L112.379 187.311ZM-30.9806 233.363C-2.2913 223.123 55.0484 202.658 112.379 187.311L111.862 185.379C54.443 200.749 -2.96724 221.241 -31.6529 231.479L-30.9806 233.363Z" fill="white" mask="url(#path-29-inside-2_711_118)"/>
</mask>
<g mask="url(#mask1_711_118)">
<path d="M1262.86 109.042C1227.62 117.96 1158.12 156.802 1162.03 240.829C1166.92 345.862 1273.52 411.591 1300.18 510.679C1319.85 583.814 1317.06 766.987 1197.12 843.946" stroke="url(#paint29_linear_711_118)" stroke-width="7.78561"/>
<path d="M1212.78 127.946C1177.54 136.864 1108.04 175.707 1111.95 259.733C1116.83 364.767 1223.44 430.495 1250.09 529.583C1269.76 602.718 1266.97 785.891 1147.04 862.85" stroke="url(#paint30_linear_711_118)" stroke-width="7.78561"/>
<path d="M1162.03 145.832C1126.79 154.75 1057.29 193.593 1061.2 277.619C1066.08 382.653 1172.69 448.381 1199.34 547.469C1219.01 620.604 1216.22 803.777 1096.29 880.736" stroke="url(#paint31_linear_711_118)" stroke-width="7.78561"/>
<path d="M1110.6 162.605C1075.36 171.523 1005.85 210.366 1009.76 294.392C1014.65 399.426 1121.26 465.154 1147.91 564.243C1167.58 637.377 1164.79 820.551 1044.85 897.509" stroke="url(#paint32_linear_711_118)" stroke-width="7.78561"/>
<path d="M1058.46 178.134C1023.22 187.052 953.717 225.895 957.626 309.922C962.512 414.955 1069.12 480.683 1095.77 579.772C1115.44 652.906 1112.65 836.08 992.718 913.038" stroke="url(#paint33_linear_711_118)" stroke-width="7.78561"/>
<path d="M1005.6 192.258C970.36 201.176 900.858 240.019 904.767 324.045C909.653 429.079 1016.26 494.807 1042.91 593.895C1062.58 667.03 1059.79 850.203 939.859 927.162" stroke="url(#paint34_linear_711_118)" stroke-width="7.78561"/>
<path d="M952.022 204.774C916.782 213.692 847.28 252.534 851.189 336.561C856.075 441.595 962.682 507.323 989.334 606.411C1009.01 679.546 1006.21 862.719 886.281 939.678" stroke="url(#paint35_linear_711_118)" stroke-width="7.78561"/>
<path d="M897.713 215.42C862.474 224.338 792.972 263.18 796.881 347.207C801.767 452.24 908.374 517.969 935.026 617.057C954.697 690.192 951.905 873.365 831.972 950.324" stroke="url(#paint36_linear_711_118)" stroke-width="7.78561"/>
<path d="M842.713 223.869C807.474 232.787 737.972 271.63 741.881 355.657C746.767 460.69 853.374 526.419 880.026 625.507C899.697 698.641 896.905 881.815 776.973 958.773" stroke="url(#paint37_linear_711_118)" stroke-width="7.78561"/>
<path d="M787.1 229.701C751.861 238.619 682.359 277.462 686.268 361.488C691.154 466.522 797.761 532.25 824.413 631.339C844.084 704.473 841.292 887.647 721.359 964.605" stroke="url(#paint38_linear_711_118)" stroke-width="7.78561"/>
<path d="M731.049 232.392C695.81 241.31 626.308 280.153 630.217 364.179C635.103 469.213 741.71 534.941 768.362 634.029C788.033 707.164 785.241 890.338 665.309 967.296" stroke="url(#paint39_linear_711_118)" stroke-width="7.78561"/>
<path d="M674.905 231.298C639.666 240.216 570.164 279.058 574.073 363.085C578.959 468.118 685.566 533.847 712.217 632.935C731.888 706.069 729.097 889.243 609.164 966.202" stroke="url(#paint40_linear_711_118)" stroke-width="7.78561"/>
<path d="M619.253 225.672C584.013 234.59 514.511 273.432 518.42 357.459C523.306 462.492 629.913 528.221 656.565 627.309C676.236 700.443 673.445 883.617 553.512 960.576" stroke="url(#paint41_linear_711_118)" stroke-width="7.78561"/>
<path d="M565.034 214.76C529.795 223.678 460.293 262.521 464.202 346.548C469.088 451.581 575.695 517.309 602.347 616.398C622.018 689.532 619.226 872.706 499.293 949.664" stroke="url(#paint42_linear_711_118)" stroke-width="7.78561"/>
<path d="M504.28 195.042C469.04 203.96 399.539 242.802 403.448 326.829C408.334 431.863 514.941 497.591 541.592 596.679C561.263 669.814 558.472 852.987 438.539 929.946" stroke="url(#paint43_linear_711_118)" stroke-width="7.78561"/>
<path d="M452.222 179.367C416.982 188.285 347.48 227.127 351.389 311.154C356.275 416.187 462.882 481.916 489.534 581.004C509.205 654.139 506.414 837.312 386.481 914.271" stroke="url(#paint44_linear_711_118)" stroke-width="7.78561"/>
<path d="M398.601 166.942C363.361 175.86 293.86 214.703 297.768 298.729C302.655 403.763 409.262 469.491 435.913 568.58C455.584 641.714 452.793 824.888 332.86 901.846" stroke="url(#paint45_linear_711_118)" stroke-width="7.78561"/>
<path d="M343.781 157.846C308.541 166.764 239.039 205.607 242.948 289.634C247.834 394.667 354.441 460.396 381.093 559.484C400.764 632.618 397.973 815.792 278.04 892.75" stroke="url(#paint46_linear_711_118)" stroke-width="7.78561"/>
<path d="M288.16 152.078C252.92 160.996 183.418 199.838 187.327 283.865C192.213 388.898 298.82 454.627 325.472 553.715C345.143 626.849 342.351 810.023 222.419 886.982" stroke="url(#paint47_linear_711_118)" stroke-width="7.78561"/>
<path d="M232.097 149.564C196.858 158.482 127.356 197.325 131.265 281.352C136.151 386.385 242.758 452.114 269.41 551.202C289.081 624.336 286.289 807.51 166.356 884.468" stroke="url(#paint48_linear_711_118)" stroke-width="7.78561"/>
<path d="M175.941 150.177C140.701 159.095 71.1996 197.938 75.1085 281.965C79.9947 386.998 186.602 452.726 213.253 551.815C232.924 624.949 230.133 808.123 110.2 885.081" stroke="url(#paint49_linear_711_118)" stroke-width="7.78561"/>
<path d="M119.98 153.749C84.7406 162.666 15.2388 201.509 19.1477 285.536C24.0339 390.569 130.641 456.298 157.293 555.386C176.964 628.52 174.172 811.694 54.2392 888.652" stroke="url(#paint50_linear_711_118)" stroke-width="7.78561"/>
<path d="M64.4684 160.1C29.2289 169.018 -40.2729 207.861 -36.364 291.888C-31.4778 396.921 75.1292 462.65 101.781 561.738C121.452 634.872 118.66 818.046 -1.27248 895.004" stroke="url(#paint51_linear_711_118)" stroke-width="7.78561"/>
<path d="M9.60528 169.047C-25.6342 177.965 -95.136 216.807 -91.2271 300.834C-86.341 405.868 20.266 471.596 46.9177 570.684C66.5887 643.819 63.7972 826.992 -56.1356 903.951" stroke="url(#paint52_linear_711_118)" stroke-width="7.78561"/>
<path d="M-44.4336 180.418C-79.6731 189.336 -149.175 228.179 -145.266 312.205C-140.38 417.239 -33.7729 482.967 -7.12114 582.056C12.5498 655.19 9.75829 838.364 -110.175 915.322" stroke="url(#paint53_linear_711_118)" stroke-width="7.78561"/>
</g>
</g>
<g opacity="0.5">
<path fill-rule="evenodd" clip-rule="evenodd" d="M-5.10596 273.324L19.2696 261.105C43.6452 248.886 92.3963 224.449 141.147 206.121C189.899 187.792 238.65 175.574 287.401 206.121C336.152 236.667 384.903 309.98 433.654 352.745C482.405 395.511 531.156 407.73 579.907 401.62C628.659 395.511 677.41 371.073 726.161 346.636C774.912 322.198 823.663 297.761 872.414 297.761C921.165 297.761 969.916 322.198 1018.67 309.98C1067.42 297.761 1116.17 248.886 1140.55 224.449L1164.92 200.011V493.261H1140.55C1116.17 493.261 1067.42 493.261 1018.67 493.261C969.916 493.261 921.165 493.261 872.414 493.261C823.663 493.261 774.912 493.261 726.161 493.261C677.41 493.261 628.659 493.261 579.907 493.261C531.156 493.261 482.405 493.261 433.654 493.261C384.903 493.261 336.152 493.261 287.401 493.261C238.65 493.261 189.899 493.261 141.147 493.261C92.3963 493.261 43.6452 493.261 19.2696 493.261H-5.10596V273.324Z" fill="url(#paint54_linear_711_118)"/>
<path fill-rule="evenodd" clip-rule="evenodd" d="M-5.10596 273.324L19.2696 261.105C43.6452 248.886 92.3963 224.449 141.147 206.121C189.899 187.792 238.65 175.574 287.401 206.121C336.152 236.667 384.903 309.98 433.654 352.745C482.405 395.511 531.156 407.73 579.907 401.62C628.659 395.511 677.41 371.073 726.161 346.636C774.912 322.198 823.663 297.761 872.414 297.761C921.165 297.761 969.916 322.198 1018.67 309.98C1067.42 297.761 1116.17 248.886 1140.55 224.449L1164.92 200.011V493.261H1140.55C1116.17 493.261 1067.42 493.261 1018.67 493.261C969.916 493.261 921.165 493.261 872.414 493.261C823.663 493.261 774.912 493.261 726.161 493.261C677.41 493.261 628.659 493.261 579.907 493.261C531.156 493.261 482.405 493.261 433.654 493.261C384.903 493.261 336.152 493.261 287.401 493.261C238.65 493.261 189.899 493.261 141.147 493.261C92.3963 493.261 43.6452 493.261 19.2696 493.261H-5.10596V273.324Z" fill="url(#paint55_linear_711_118)"/>
<mask id="mask2_711_118" style="mask-type:alpha" maskUnits="userSpaceOnUse" x="-6" y="187" width="1171" height="671">
<mask id="path-57-inside-3_711_118" fill="white">
<path fill-rule="evenodd" clip-rule="evenodd" d="M19.2706 261.105L-5.10492 273.324V491.117V493.261V857.421H1164.92V493.261V491.117V200.012L1140.55 224.449C1116.17 248.887 1067.42 297.761 1018.67 309.98C989.418 317.311 960.167 311.446 930.917 305.581C911.416 301.671 891.916 297.761 872.415 297.761C823.664 297.761 774.913 322.199 726.162 346.636C677.411 371.074 628.66 395.511 579.909 401.621C531.157 407.73 482.406 395.511 433.655 352.746C413.342 334.927 393.029 311.805 372.716 288.682C344.278 256.311 315.84 223.94 287.402 206.121C238.651 175.574 189.9 187.793 141.148 206.121C92.3973 224.449 43.6462 248.887 19.2706 261.105Z"/>
</mask>
<path fill-rule="evenodd" clip-rule="evenodd" d="M19.2706 261.105L-5.10492 273.324V491.117V493.261V857.421H1164.92V493.261V491.117V200.012L1140.55 224.449C1116.17 248.887 1067.42 297.761 1018.67 309.98C989.418 317.311 960.167 311.446 930.917 305.581C911.416 301.671 891.916 297.761 872.415 297.761C823.664 297.761 774.913 322.199 726.162 346.636C677.411 371.074 628.66 395.511 579.909 401.621C531.157 407.73 482.406 395.511 433.655 352.746C413.342 334.927 393.029 311.805 372.716 288.682C344.278 256.311 315.84 223.94 287.402 206.121C238.651 175.574 189.9 187.793 141.148 206.121C92.3973 224.449 43.6462 248.887 19.2706 261.105Z" fill="url(#paint56_linear_711_118)"/>
<path d="M-5.10492 273.324L-5.55304 272.43L-6.10492 272.707V273.324H-5.10492ZM19.2706 261.105L18.8225 260.211L19.2706 261.105ZM-5.10492 857.421H-6.10492V858.421H-5.10492V857.421ZM1164.92 857.421V858.421H1165.92V857.421H1164.92ZM1164.92 200.012H1165.92V197.593L1164.21 199.305L1164.92 200.012ZM1140.55 224.449L1139.84 223.743V223.743L1140.55 224.449ZM1018.67 309.98L1018.91 310.95L1018.67 309.98ZM930.917 305.581L931.113 304.601L930.917 305.581ZM579.909 401.621L580.033 402.613L579.909 401.621ZM433.655 352.746L434.315 351.994L433.655 352.746ZM372.716 288.682L371.965 289.342L372.716 288.682ZM287.402 206.121L286.871 206.968L287.402 206.121ZM141.148 206.121L141.5 207.057L141.148 206.121ZM-4.6568 274.218L19.7188 261.999L18.8225 260.211L-5.55304 272.43L-4.6568 274.218ZM-4.10492 491.117V273.324H-6.10492V491.117H-4.10492ZM-4.10492 493.261V491.117H-6.10492V493.261H-4.10492ZM-4.10492 857.421V493.261H-6.10492V857.421H-4.10492ZM1164.92 856.421H-5.10492V858.421H1164.92V856.421ZM1163.92 493.261V857.421H1165.92V493.261H1163.92ZM1163.92 491.117V493.261H1165.92V491.117H1163.92ZM1163.92 200.012V491.117H1165.92V200.012H1163.92ZM1141.25 225.155L1165.63 200.718L1164.21 199.305L1139.84 223.743L1141.25 225.155ZM1018.91 310.95C1043.49 304.79 1068 289.414 1089.37 272.582C1110.75 255.74 1129.07 237.372 1141.25 225.155L1139.84 223.743C1127.65 235.963 1109.41 254.252 1088.13 271.011C1066.84 287.781 1042.6 302.952 1018.43 309.01L1018.91 310.95ZM930.72 306.562C959.93 312.419 989.406 318.345 1018.91 310.95L1018.43 309.01C989.43 316.278 960.404 310.474 931.113 304.601L930.72 306.562ZM872.415 298.761C891.799 298.761 911.201 302.648 930.72 306.562L931.113 304.601C911.631 300.695 892.032 296.761 872.415 296.761V298.761ZM726.61 347.53C775.419 323.064 823.947 298.761 872.415 298.761V296.761C823.381 296.761 774.407 321.334 725.714 345.742L726.61 347.53ZM580.033 402.613C628.987 396.478 677.898 371.948 726.61 347.53L725.714 345.742C676.923 370.2 628.332 394.545 579.784 400.628L580.033 402.613ZM432.996 353.498C481.955 396.446 530.99 408.759 580.033 402.613L579.784 400.628C531.325 406.701 482.857 394.577 434.315 351.994L432.996 353.498ZM371.965 289.342C392.267 312.452 412.624 335.627 432.996 353.498L434.315 351.994C414.06 334.226 393.792 311.157 373.467 288.022L371.965 289.342ZM286.871 206.968C315.158 224.693 343.492 256.932 371.965 289.342L373.467 288.022C345.064 255.69 316.522 223.187 287.933 205.274L286.871 206.968ZM141.5 207.057C190.222 188.74 238.555 176.694 286.871 206.968L287.933 205.274C238.747 174.454 189.577 186.846 140.797 205.185L141.5 207.057ZM19.7188 261.999C44.0973 249.779 92.8048 225.364 141.5 207.057L140.797 205.185C91.9898 223.534 43.1951 247.994 18.8225 260.211L19.7188 261.999Z" fill="white" mask="url(#path-57-inside-3_711_118)"/>
</mask>
<g mask="url(#mask2_711_118)">
<path d="M1071.81 39.5312C1046.88 50.1734 997.715 96.526 1000.48 196.799C1003.94 322.14 1079.35 400.577 1098.2 518.823C1112.12 606.098 1110.15 824.688 1025.3 916.526" stroke="url(#paint57_linear_711_118)" stroke-width="7.78561"/>
<path d="M1037.85 65.3975C1012.92 76.0396 963.758 122.392 966.523 222.665C969.979 348.006 1045.39 426.443 1064.25 544.69C1078.16 631.964 1076.19 850.554 991.347 942.392" stroke="url(#paint58_linear_711_118)" stroke-width="7.78561"/>
<path d="M1003.38 90.1753C978.449 100.817 929.283 147.17 932.048 247.443C935.505 372.784 1010.92 451.221 1029.77 569.468C1043.69 656.742 1041.71 875.332 956.872 967.17" stroke="url(#paint59_linear_711_118)" stroke-width="7.78561"/>
<path d="M968.424 113.869C943.496 124.511 894.33 170.864 897.095 271.137C900.551 396.478 975.966 474.915 994.82 593.161C1008.73 680.436 1006.76 899.025 921.919 990.863" stroke="url(#paint60_linear_711_118)" stroke-width="7.78561"/>
<path d="M933.001 136.429C908.072 147.071 858.906 193.423 861.671 293.696C865.128 419.038 940.542 497.474 959.396 615.721C973.311 702.996 971.336 921.585 886.495 1013.42" stroke="url(#paint61_linear_711_118)" stroke-width="7.78561"/>
<path d="M897.094 157.773C872.166 168.415 823 214.768 825.765 315.041C829.222 440.382 904.636 518.819 923.49 637.065C937.405 724.34 935.43 942.929 850.589 1034.77" stroke="url(#paint62_linear_711_118)" stroke-width="7.78561"/>
<path d="M860.71 177.789C835.781 188.431 786.615 234.784 789.38 335.057C792.837 460.398 868.251 538.835 887.105 657.082C901.02 744.356 899.046 962.946 814.204 1054.78" stroke="url(#paint63_linear_711_118)" stroke-width="7.78561"/>
<path d="M823.827 196.321C798.899 206.963 749.733 253.316 752.498 353.589C755.954 478.93 831.369 557.367 850.222 675.614C864.138 762.888 862.163 981.478 777.322 1073.32" stroke="url(#paint64_linear_711_118)" stroke-width="7.78561"/>
<path d="M786.439 213.175C761.51 223.817 712.344 270.169 715.109 370.442C718.566 495.784 793.98 574.22 812.834 692.467C826.749 779.741 824.774 998.331 739.933 1090.17" stroke="url(#paint65_linear_711_118)" stroke-width="7.78561"/>
<path d="M748.536 228.112C723.608 238.754 674.442 285.107 677.207 385.38C680.663 510.721 756.078 589.158 774.932 707.404C788.847 794.679 786.872 1013.27 702.031 1105.11" stroke="url(#paint66_linear_711_118)" stroke-width="7.78561"/>
<path d="M710.117 240.816C685.188 251.458 636.022 297.81 638.787 398.083C642.244 523.425 717.658 601.861 736.512 720.108C750.427 807.383 748.452 1025.97 663.611 1117.81" stroke="url(#paint67_linear_711_118)" stroke-width="7.78561"/>
<path d="M671.206 250.897C646.278 261.54 597.112 307.892 599.877 408.165C603.333 533.506 678.748 611.943 697.601 730.19C711.517 817.464 709.542 1036.05 624.701 1127.89" stroke="url(#paint68_linear_711_118)" stroke-width="7.78561"/>
<path d="M631.865 257.857C606.936 268.499 557.77 314.852 560.535 415.125C563.992 540.466 639.406 618.903 658.26 737.149C672.175 824.424 670.201 1043.01 585.359 1134.85" stroke="url(#paint69_linear_711_118)" stroke-width="7.78561"/>
<path d="M592.218 261.069C567.289 271.712 518.123 318.064 520.888 418.337C524.345 543.678 599.759 622.115 618.613 740.362C632.528 827.636 630.553 1046.23 545.712 1138.06" stroke="url(#paint70_linear_711_118)" stroke-width="7.78561"/>
<path d="M552.5 259.761C527.571 270.403 478.405 316.756 481.17 417.029C484.627 542.37 560.041 620.807 578.895 739.053C592.81 826.328 590.835 1044.92 505.994 1136.76" stroke="url(#paint71_linear_711_118)" stroke-width="7.78561"/>
<path d="M513.135 253.051C488.206 263.693 439.04 310.045 441.805 410.318C445.262 535.66 520.676 614.096 539.53 732.343C553.445 819.617 551.47 1038.21 466.629 1130.04" stroke="url(#paint72_linear_711_118)" stroke-width="7.78561"/>
<path d="M474.778 240.029C449.849 250.671 400.683 297.024 403.448 397.297C406.905 522.638 482.319 601.075 501.173 719.322C515.088 806.596 513.113 1025.19 428.272 1117.02" stroke="url(#paint73_linear_711_118)" stroke-width="7.78561"/>
<path d="M431.801 216.497C406.872 227.139 357.706 273.491 360.471 373.764C363.928 499.106 439.342 577.542 458.196 695.789C472.111 783.064 470.136 1001.65 385.295 1093.49" stroke="url(#paint74_linear_711_118)" stroke-width="7.78561"/>
<path d="M394.973 197.79C370.044 208.432 320.878 254.785 323.644 355.058C327.1 480.399 402.514 558.836 421.368 677.082C435.283 764.357 433.309 982.946 348.468 1074.78" stroke="url(#paint75_linear_711_118)" stroke-width="7.78561"/>
<path d="M357.043 182.967C332.115 193.609 282.949 239.961 285.714 340.234C289.17 465.576 364.585 544.012 383.438 662.259C397.354 749.533 395.379 968.123 310.538 1059.96" stroke="url(#paint76_linear_711_118)" stroke-width="7.78561"/>
<path d="M318.263 172.11C293.334 182.752 244.168 229.105 246.933 329.378C250.39 454.719 325.804 533.156 344.658 651.402C358.573 738.677 356.598 957.266 271.757 1049.1" stroke="url(#paint77_linear_711_118)" stroke-width="7.78561"/>
<path d="M278.913 165.227C253.985 175.869 204.819 222.222 207.584 322.495C211.04 447.836 286.455 526.273 305.308 644.519C319.224 731.794 317.249 950.383 232.408 1042.22" stroke="url(#paint78_linear_711_118)" stroke-width="7.78561"/>
<path d="M239.258 162.226C214.329 172.868 165.163 219.221 167.929 319.494C171.385 444.835 246.8 523.272 265.653 641.519C279.568 728.793 277.594 947.383 192.753 1039.22" stroke="url(#paint79_linear_711_118)" stroke-width="7.78561"/>
<path d="M199.528 162.958C174.6 173.6 125.434 219.953 128.199 320.226C131.655 445.567 207.07 524.004 225.923 642.25C239.839 729.525 237.864 948.114 153.023 1039.95" stroke="url(#paint80_linear_711_118)" stroke-width="7.78561"/>
<path d="M159.944 167.221C135.015 177.863 85.8491 224.216 88.6143 324.489C92.0708 449.83 167.485 528.267 186.339 646.513C200.254 733.788 198.279 952.378 113.438 1044.22" stroke="url(#paint81_linear_711_118)" stroke-width="7.78561"/>
<path d="M120.677 174.799C95.7481 185.441 46.5821 231.794 49.3473 332.067C52.8038 457.408 128.218 535.845 147.072 654.091C160.987 741.366 159.012 959.955 74.1712 1051.79" stroke="url(#paint82_linear_711_118)" stroke-width="7.78561"/>
<path d="M81.8686 185.477C56.94 196.119 7.77396 242.471 10.5392 342.744C13.9956 468.086 89.4101 546.522 108.264 664.769C122.179 752.043 120.204 970.633 35.3631 1062.47" stroke="url(#paint83_linear_711_118)" stroke-width="7.78561"/>
<path d="M43.6369 199.045C18.7083 209.687 -30.4577 256.04 -27.6925 356.313C-24.236 481.654 51.1784 560.091 70.032 678.337C83.9473 765.612 81.9726 984.202 -2.86861 1076.04" stroke="url(#paint84_linear_711_118)" stroke-width="7.78561"/>
<path d="M6.09937 215.344C-18.8293 225.986 -67.9953 272.338 -65.2301 372.611C-61.7736 497.952 13.6408 576.389 32.4944 694.636C46.4098 781.91 44.435 1000.5 -40.4061 1092.34" stroke="url(#paint85_linear_711_118)" stroke-width="7.78561"/>
</g>
</g>
<rect x="0.835876" y="0.420898" width="1167.08" height="473.093" fill="url(#paint86_linear_711_118)"/>
<defs>
<filter id="filter0_f_711_118" x="-160.004" y="70.7534" width="1577" height="761.368" filterUnits="userSpaceOnUse" color-interpolation-filters="sRGB">
<feFlood flood-opacity="0" result="BackgroundImageFix"/>
<feBlend mode="normal" in="SourceGraphic" in2="BackgroundImageFix" result="shape"/>
<feGaussianBlur stdDeviation="50" result="effect1_foregroundBlur_711_118"/>
</filter>
<filter id="filter1_f_711_118" x="-85.0043" y="145.753" width="1427" height="611.368" filterUnits="userSpaceOnUse" color-interpolation-filters="sRGB">
<feFlood flood-opacity="0" result="BackgroundImageFix"/>
<feBlend mode="normal" in="SourceGraphic" in2="BackgroundImageFix" result="shape"/>
<feGaussianBlur stdDeviation="12.5" result="effect1_foregroundBlur_711_118"/>
</filter>
<linearGradient id="paint0_linear_711_118" x1="628.496" y1="170.753" x2="356.484" y2="835.956" gradientUnits="userSpaceOnUse">
<stop stop-color="#00E8A2"/>
<stop offset="1" stop-color="#00ADE8"/>
</linearGradient>
<linearGradient id="paint1_linear_711_118" x1="814.098" y1="908.414" x2="606.822" y2="151.269" gradientUnits="userSpaceOnUse">
<stop/>
<stop offset="1" stop-opacity="0"/>
</linearGradient>
<linearGradient id="paint2_linear_711_118" x1="628.496" y1="170.753" x2="356.484" y2="835.956" gradientUnits="userSpaceOnUse">
<stop stop-color="#00E8A2"/>
<stop offset="1" stop-color="#00ADE8"/>
</linearGradient>
<linearGradient id="paint3_linear_711_118" x1="1235.61" y1="109.042" x2="1040.09" y2="148.156" gradientUnits="userSpaceOnUse">
<stop stop-color="#00E8A2"/>
<stop offset="1" stop-color="#00ADE8"/>
</linearGradient>
<linearGradient id="paint4_linear_711_118" x1="1185.52" y1="127.946" x2="990.002" y2="167.06" gradientUnits="userSpaceOnUse">
<stop stop-color="#00E8A2"/>
<stop offset="1" stop-color="#00ADE8"/>
</linearGradient>
<linearGradient id="paint5_linear_711_118" x1="1134.77" y1="145.832" x2="939.253" y2="184.946" gradientUnits="userSpaceOnUse">
<stop stop-color="#00E8A2"/>
<stop offset="1" stop-color="#00ADE8"/>
</linearGradient>
<linearGradient id="paint6_linear_711_118" x1="1083.34" y1="162.605" x2="887.819" y2="201.719" gradientUnits="userSpaceOnUse">
<stop stop-color="#00E8A2"/>
<stop offset="1" stop-color="#00ADE8"/>
</linearGradient>
<linearGradient id="paint7_linear_711_118" x1="1031.2" y1="178.134" x2="835.683" y2="217.248" gradientUnits="userSpaceOnUse">
<stop stop-color="#00E8A2"/>
<stop offset="1" stop-color="#00ADE8"/>
</linearGradient>
<linearGradient id="paint8_linear_711_118" x1="978.342" y1="192.258" x2="782.824" y2="231.372" gradientUnits="userSpaceOnUse">
<stop stop-color="#00E8A2"/>
<stop offset="1" stop-color="#00ADE8"/>
</linearGradient>
<linearGradient id="paint9_linear_711_118" x1="924.765" y1="204.774" x2="729.246" y2="243.888" gradientUnits="userSpaceOnUse">
<stop stop-color="#00E8A2"/>
<stop offset="1" stop-color="#00ADE8"/>
</linearGradient>
<linearGradient id="paint10_linear_711_118" x1="870.456" y1="215.42" x2="674.937" y2="254.534" gradientUnits="userSpaceOnUse">
<stop stop-color="#00E8A2"/>
<stop offset="1" stop-color="#00ADE8"/>
</linearGradient>
<linearGradient id="paint11_linear_711_118" x1="815.456" y1="223.869" x2="619.938" y2="262.983" gradientUnits="userSpaceOnUse">
<stop stop-color="#00E8A2"/>
<stop offset="1" stop-color="#00ADE8"/>
</linearGradient>
<linearGradient id="paint12_linear_711_118" x1="759.843" y1="229.701" x2="564.324" y2="268.815" gradientUnits="userSpaceOnUse">
<stop stop-color="#00E8A2"/>
<stop offset="1" stop-color="#00ADE8"/>
</linearGradient>
<linearGradient id="paint13_linear_711_118" x1="703.792" y1="232.392" x2="508.274" y2="271.506" gradientUnits="userSpaceOnUse">
<stop stop-color="#00E8A2"/>
<stop offset="1" stop-color="#00ADE8"/>
</linearGradient>
<linearGradient id="paint14_linear_711_118" x1="647.648" y1="231.298" x2="452.129" y2="270.412" gradientUnits="userSpaceOnUse">
<stop stop-color="#00E8A2"/>
<stop offset="1" stop-color="#00ADE8"/>
</linearGradient>
<linearGradient id="paint15_linear_711_118" x1="591.996" y1="225.672" x2="396.477" y2="264.786" gradientUnits="userSpaceOnUse">
<stop stop-color="#00E8A2"/>
<stop offset="1" stop-color="#00ADE8"/>
</linearGradient>
<linearGradient id="paint16_linear_711_118" x1="537.777" y1="214.76" x2="342.258" y2="253.874" gradientUnits="userSpaceOnUse">
<stop stop-color="#00E8A2"/>
<stop offset="1" stop-color="#00ADE8"/>
</linearGradient>
<linearGradient id="paint17_linear_711_118" x1="477.023" y1="195.042" x2="281.504" y2="234.156" gradientUnits="userSpaceOnUse">
<stop stop-color="#00E8A2"/>
<stop offset="1" stop-color="#00ADE8"/>
</linearGradient>
<linearGradient id="paint18_linear_711_118" x1="424.964" y1="179.367" x2="229.446" y2="218.481" gradientUnits="userSpaceOnUse">
<stop stop-color="#00E8A2"/>
<stop offset="1" stop-color="#00ADE8"/>
</linearGradient>
<linearGradient id="paint19_linear_711_118" x1="371.344" y1="166.942" x2="175.825" y2="206.056" gradientUnits="userSpaceOnUse">
<stop stop-color="#00E8A2"/>
<stop offset="1" stop-color="#00ADE8"/>
</linearGradient>
<linearGradient id="paint20_linear_711_118" x1="316.523" y1="157.846" x2="121.005" y2="196.96" gradientUnits="userSpaceOnUse">
<stop stop-color="#00E8A2"/>
<stop offset="1" stop-color="#00ADE8"/>
</linearGradient>
<linearGradient id="paint21_linear_711_118" x1="260.902" y1="152.078" x2="65.3837" y2="191.192" gradientUnits="userSpaceOnUse">
<stop stop-color="#00E8A2"/>
<stop offset="1" stop-color="#00ADE8"/>
</linearGradient>
<linearGradient id="paint22_linear_711_118" x1="204.84" y1="149.564" x2="9.32125" y2="188.678" gradientUnits="userSpaceOnUse">
<stop stop-color="#00E8A2"/>
<stop offset="1" stop-color="#00ADE8"/>
</linearGradient>
<linearGradient id="paint23_linear_711_118" x1="148.684" y1="150.177" x2="-46.835" y2="189.291" gradientUnits="userSpaceOnUse">
<stop stop-color="#00E8A2"/>
<stop offset="1" stop-color="#00ADE8"/>
</linearGradient>
<linearGradient id="paint24_linear_711_118" x1="92.7229" y1="153.749" x2="-102.796" y2="192.863" gradientUnits="userSpaceOnUse">
<stop stop-color="#00E8A2"/>
<stop offset="1" stop-color="#00ADE8"/>
</linearGradient>
<linearGradient id="paint25_linear_711_118" x1="37.2112" y1="160.1" x2="-158.307" y2="199.214" gradientUnits="userSpaceOnUse">
<stop stop-color="#00E8A2"/>
<stop offset="1" stop-color="#00ADE8"/>
</linearGradient>
<linearGradient id="paint26_linear_711_118" x1="-17.6519" y1="169.047" x2="-213.171" y2="208.161" gradientUnits="userSpaceOnUse">
<stop stop-color="#00E8A2"/>
<stop offset="1" stop-color="#00ADE8"/>
</linearGradient>
<linearGradient id="paint27_linear_711_118" x1="-71.6908" y1="180.418" x2="-267.21" y2="219.532" gradientUnits="userSpaceOnUse">
<stop stop-color="#00E8A2"/>
<stop offset="1" stop-color="#00ADE8"/>
</linearGradient>
<linearGradient id="paint28_linear_711_118" x1="628.496" y1="170.753" x2="356.484" y2="835.956" gradientUnits="userSpaceOnUse">
<stop stop-color="#00E8A2"/>
<stop offset="1" stop-color="#00ADE8"/>
</linearGradient>
<linearGradient id="paint29_linear_711_118" x1="1235.61" y1="109.042" x2="1040.09" y2="148.156" gradientUnits="userSpaceOnUse">
<stop stop-color="#00E8A2"/>
<stop offset="1" stop-color="#00ADE8"/>
</linearGradient>
<linearGradient id="paint30_linear_711_118" x1="1185.52" y1="127.946" x2="990.002" y2="167.06" gradientUnits="userSpaceOnUse">
<stop stop-color="#00E8A2"/>
<stop offset="1" stop-color="#00ADE8"/>
</linearGradient>
<linearGradient id="paint31_linear_711_118" x1="1134.77" y1="145.832" x2="939.253" y2="184.946" gradientUnits="userSpaceOnUse">
<stop stop-color="#00E8A2"/>
<stop offset="1" stop-color="#00ADE8"/>
</linearGradient>
<linearGradient id="paint32_linear_711_118" x1="1083.34" y1="162.605" x2="887.819" y2="201.719" gradientUnits="userSpaceOnUse">
<stop stop-color="#00E8A2"/>
<stop offset="1" stop-color="#00ADE8"/>
</linearGradient>
<linearGradient id="paint33_linear_711_118" x1="1031.2" y1="178.134" x2="835.683" y2="217.248" gradientUnits="userSpaceOnUse">
<stop stop-color="#00E8A2"/>
<stop offset="1" stop-color="#00ADE8"/>
</linearGradient>
<linearGradient id="paint34_linear_711_118" x1="978.342" y1="192.258" x2="782.824" y2="231.372" gradientUnits="userSpaceOnUse">
<stop stop-color="#00E8A2"/>
<stop offset="1" stop-color="#00ADE8"/>
</linearGradient>
<linearGradient id="paint35_linear_711_118" x1="924.765" y1="204.774" x2="729.246" y2="243.888" gradientUnits="userSpaceOnUse">
<stop stop-color="#00E8A2"/>
<stop offset="1" stop-color="#00ADE8"/>
</linearGradient>
<linearGradient id="paint36_linear_711_118" x1="870.456" y1="215.42" x2="674.937" y2="254.534" gradientUnits="userSpaceOnUse">
<stop stop-color="#00E8A2"/>
<stop offset="1" stop-color="#00ADE8"/>
</linearGradient>
<linearGradient id="paint37_linear_711_118" x1="815.456" y1="223.869" x2="619.938" y2="262.983" gradientUnits="userSpaceOnUse">
<stop stop-color="#00E8A2"/>
<stop offset="1" stop-color="#00ADE8"/>
</linearGradient>
<linearGradient id="paint38_linear_711_118" x1="759.843" y1="229.701" x2="564.324" y2="268.815" gradientUnits="userSpaceOnUse">
<stop stop-color="#00E8A2"/>
<stop offset="1" stop-color="#00ADE8"/>
</linearGradient>
<linearGradient id="paint39_linear_711_118" x1="703.792" y1="232.392" x2="508.274" y2="271.506" gradientUnits="userSpaceOnUse">
<stop stop-color="#00E8A2"/>
<stop offset="1" stop-color="#00ADE8"/>
</linearGradient>
<linearGradient id="paint40_linear_711_118" x1="647.648" y1="231.298" x2="452.129" y2="270.412" gradientUnits="userSpaceOnUse">
<stop stop-color="#00E8A2"/>
<stop offset="1" stop-color="#00ADE8"/>
</linearGradient>
<linearGradient id="paint41_linear_711_118" x1="591.996" y1="225.672" x2="396.477" y2="264.786" gradientUnits="userSpaceOnUse">
<stop stop-color="#00E8A2"/>
<stop offset="1" stop-color="#00ADE8"/>
</linearGradient>
<linearGradient id="paint42_linear_711_118" x1="537.777" y1="214.76" x2="342.258" y2="253.874" gradientUnits="userSpaceOnUse">
<stop stop-color="#00E8A2"/>
<stop offset="1" stop-color="#00ADE8"/>
</linearGradient>
<linearGradient id="paint43_linear_711_118" x1="477.023" y1="195.042" x2="281.504" y2="234.156" gradientUnits="userSpaceOnUse">
<stop stop-color="#00E8A2"/>
<stop offset="1" stop-color="#00ADE8"/>
</linearGradient>
<linearGradient id="paint44_linear_711_118" x1="424.964" y1="179.367" x2="229.446" y2="218.481" gradientUnits="userSpaceOnUse">
<stop stop-color="#00E8A2"/>
<stop offset="1" stop-color="#00ADE8"/>
</linearGradient>
<linearGradient id="paint45_linear_711_118" x1="371.344" y1="166.942" x2="175.825" y2="206.056" gradientUnits="userSpaceOnUse">
<stop stop-color="#00E8A2"/>
<stop offset="1" stop-color="#00ADE8"/>
</linearGradient>
<linearGradient id="paint46_linear_711_118" x1="316.523" y1="157.846" x2="121.005" y2="196.96" gradientUnits="userSpaceOnUse">
<stop stop-color="#00E8A2"/>
<stop offset="1" stop-color="#00ADE8"/>
</linearGradient>
<linearGradient id="paint47_linear_711_118" x1="260.902" y1="152.078" x2="65.3837" y2="191.192" gradientUnits="userSpaceOnUse">
<stop stop-color="#00E8A2"/>
<stop offset="1" stop-color="#00ADE8"/>
</linearGradient>
<linearGradient id="paint48_linear_711_118" x1="204.84" y1="149.564" x2="9.32125" y2="188.678" gradientUnits="userSpaceOnUse">
<stop stop-color="#00E8A2"/>
<stop offset="1" stop-color="#00ADE8"/>
</linearGradient>
<linearGradient id="paint49_linear_711_118" x1="148.684" y1="150.177" x2="-46.835" y2="189.291" gradientUnits="userSpaceOnUse">
<stop stop-color="#00E8A2"/>
<stop offset="1" stop-color="#00ADE8"/>
</linearGradient>
<linearGradient id="paint50_linear_711_118" x1="92.7229" y1="153.749" x2="-102.796" y2="192.863" gradientUnits="userSpaceOnUse">
<stop stop-color="#00E8A2"/>
<stop offset="1" stop-color="#00ADE8"/>
</linearGradient>
<linearGradient id="paint51_linear_711_118" x1="37.2112" y1="160.1" x2="-158.307" y2="199.214" gradientUnits="userSpaceOnUse">
<stop stop-color="#00E8A2"/>
<stop offset="1" stop-color="#00ADE8"/>
</linearGradient>
<linearGradient id="paint52_linear_711_118" x1="-17.6519" y1="169.047" x2="-213.171" y2="208.161" gradientUnits="userSpaceOnUse">
<stop stop-color="#00E8A2"/>
<stop offset="1" stop-color="#00ADE8"/>
</linearGradient>
<linearGradient id="paint53_linear_711_118" x1="-71.6908" y1="180.418" x2="-267.21" y2="219.532" gradientUnits="userSpaceOnUse">
<stop stop-color="#00E8A2"/>
<stop offset="1" stop-color="#00ADE8"/>
</linearGradient>
<linearGradient id="paint54_linear_711_118" x1="579.908" y1="249.622" x2="300.528" y2="860.104" gradientUnits="userSpaceOnUse">
<stop stop-color="#00E8A2"/>
<stop offset="1" stop-color="#00ADE8"/>
</linearGradient>
<linearGradient id="paint55_linear_711_118" x1="-5.10596" y1="359.923" x2="1155.84" y2="406.642" gradientUnits="userSpaceOnUse">
<stop/>
<stop offset="1" stop-opacity="0"/>
</linearGradient>
<linearGradient id="paint56_linear_711_118" x1="579.908" y1="187.515" x2="179.766" y2="884.265" gradientUnits="userSpaceOnUse">
<stop stop-color="#00E8A2"/>
<stop offset="1" stop-color="#00ADE8"/>
</linearGradient>
<linearGradient id="paint57_linear_711_118" x1="1052.53" y1="39.5312" x2="910.676" y2="56.3534" gradientUnits="userSpaceOnUse">
<stop stop-color="#00E8A2"/>
<stop offset="1" stop-color="#00ADE8"/>
</linearGradient>
<linearGradient id="paint58_linear_711_118" x1="1018.57" y1="65.3974" x2="876.719" y2="82.2196" gradientUnits="userSpaceOnUse">
<stop stop-color="#00E8A2"/>
<stop offset="1" stop-color="#00ADE8"/>
</linearGradient>
<linearGradient id="paint59_linear_711_118" x1="984.096" y1="90.1753" x2="842.244" y2="106.997" gradientUnits="userSpaceOnUse">
<stop stop-color="#00E8A2"/>
<stop offset="1" stop-color="#00ADE8"/>
</linearGradient>
<linearGradient id="paint60_linear_711_118" x1="949.143" y1="113.869" x2="807.291" y2="130.691" gradientUnits="userSpaceOnUse">
<stop stop-color="#00E8A2"/>
<stop offset="1" stop-color="#00ADE8"/>
</linearGradient>
<linearGradient id="paint61_linear_711_118" x1="913.719" y1="136.429" x2="771.867" y2="153.251" gradientUnits="userSpaceOnUse">
<stop stop-color="#00E8A2"/>
<stop offset="1" stop-color="#00ADE8"/>
</linearGradient>
<linearGradient id="paint62_linear_711_118" x1="877.813" y1="157.773" x2="735.961" y2="174.595" gradientUnits="userSpaceOnUse">
<stop stop-color="#00E8A2"/>
<stop offset="1" stop-color="#00ADE8"/>
</linearGradient>
<linearGradient id="paint63_linear_711_118" x1="841.428" y1="177.789" x2="699.576" y2="194.611" gradientUnits="userSpaceOnUse">
<stop stop-color="#00E8A2"/>
<stop offset="1" stop-color="#00ADE8"/>
</linearGradient>
<linearGradient id="paint64_linear_711_118" x1="804.545" y1="196.321" x2="662.694" y2="213.143" gradientUnits="userSpaceOnUse">
<stop stop-color="#00E8A2"/>
<stop offset="1" stop-color="#00ADE8"/>
</linearGradient>
<linearGradient id="paint65_linear_711_118" x1="767.157" y1="213.175" x2="625.305" y2="229.997" gradientUnits="userSpaceOnUse">
<stop stop-color="#00E8A2"/>
<stop offset="1" stop-color="#00ADE8"/>
</linearGradient>
<linearGradient id="paint66_linear_711_118" x1="729.255" y1="228.112" x2="587.403" y2="244.934" gradientUnits="userSpaceOnUse">
<stop stop-color="#00E8A2"/>
<stop offset="1" stop-color="#00ADE8"/>
</linearGradient>
<linearGradient id="paint67_linear_711_118" x1="690.835" y1="240.816" x2="548.983" y2="257.638" gradientUnits="userSpaceOnUse">
<stop stop-color="#00E8A2"/>
<stop offset="1" stop-color="#00ADE8"/>
</linearGradient>
<linearGradient id="paint68_linear_711_118" x1="651.925" y1="250.897" x2="510.073" y2="267.72" gradientUnits="userSpaceOnUse">
<stop stop-color="#00E8A2"/>
<stop offset="1" stop-color="#00ADE8"/>
</linearGradient>
<linearGradient id="paint69_linear_711_118" x1="612.583" y1="257.857" x2="470.731" y2="274.679" gradientUnits="userSpaceOnUse">
<stop stop-color="#00E8A2"/>
<stop offset="1" stop-color="#00ADE8"/>
</linearGradient>
<linearGradient id="paint70_linear_711_118" x1="572.936" y1="261.069" x2="431.084" y2="277.891" gradientUnits="userSpaceOnUse">
<stop stop-color="#00E8A2"/>
<stop offset="1" stop-color="#00ADE8"/>
</linearGradient>
<linearGradient id="paint71_linear_711_118" x1="533.218" y1="259.761" x2="391.366" y2="276.583" gradientUnits="userSpaceOnUse">
<stop stop-color="#00E8A2"/>
<stop offset="1" stop-color="#00ADE8"/>
</linearGradient>
<linearGradient id="paint72_linear_711_118" x1="493.853" y1="253.051" x2="352.001" y2="269.873" gradientUnits="userSpaceOnUse">
<stop stop-color="#00E8A2"/>
<stop offset="1" stop-color="#00ADE8"/>
</linearGradient>
<linearGradient id="paint73_linear_711_118" x1="455.496" y1="240.029" x2="313.644" y2="256.851" gradientUnits="userSpaceOnUse">
<stop stop-color="#00E8A2"/>
<stop offset="1" stop-color="#00ADE8"/>
</linearGradient>
<linearGradient id="paint74_linear_711_118" x1="412.519" y1="216.497" x2="270.667" y2="233.319" gradientUnits="userSpaceOnUse">
<stop stop-color="#00E8A2"/>
<stop offset="1" stop-color="#00ADE8"/>
</linearGradient>
<linearGradient id="paint75_linear_711_118" x1="375.691" y1="197.79" x2="233.84" y2="214.612" gradientUnits="userSpaceOnUse">
<stop stop-color="#00E8A2"/>
<stop offset="1" stop-color="#00ADE8"/>
</linearGradient>
<linearGradient id="paint76_linear_711_118" x1="337.761" y1="182.967" x2="195.91" y2="199.789" gradientUnits="userSpaceOnUse">
<stop stop-color="#00E8A2"/>
<stop offset="1" stop-color="#00ADE8"/>
</linearGradient>
<linearGradient id="paint77_linear_711_118" x1="298.981" y1="172.11" x2="157.129" y2="188.932" gradientUnits="userSpaceOnUse">
<stop stop-color="#00E8A2"/>
<stop offset="1" stop-color="#00ADE8"/>
</linearGradient>
<linearGradient id="paint78_linear_711_118" x1="259.631" y1="165.227" x2="117.78" y2="182.049" gradientUnits="userSpaceOnUse">
<stop stop-color="#00E8A2"/>
<stop offset="1" stop-color="#00ADE8"/>
</linearGradient>
<linearGradient id="paint79_linear_711_118" x1="219.976" y1="162.226" x2="78.1246" y2="179.048" gradientUnits="userSpaceOnUse">
<stop stop-color="#00E8A2"/>
<stop offset="1" stop-color="#00ADE8"/>
</linearGradient>
<linearGradient id="paint80_linear_711_118" x1="180.246" y1="162.958" x2="38.3949" y2="179.78" gradientUnits="userSpaceOnUse">
<stop stop-color="#00E8A2"/>
<stop offset="1" stop-color="#00ADE8"/>
</linearGradient>
<linearGradient id="paint81_linear_711_118" x1="140.662" y1="167.221" x2="-1.18971" y2="184.043" gradientUnits="userSpaceOnUse">
<stop stop-color="#00E8A2"/>
<stop offset="1" stop-color="#00ADE8"/>
</linearGradient>
<linearGradient id="paint82_linear_711_118" x1="101.395" y1="174.799" x2="-40.4567" y2="191.621" gradientUnits="userSpaceOnUse">
<stop stop-color="#00E8A2"/>
<stop offset="1" stop-color="#00ADE8"/>
</linearGradient>
<linearGradient id="paint83_linear_711_118" x1="62.5867" y1="185.477" x2="-79.2648" y2="202.299" gradientUnits="userSpaceOnUse">
<stop stop-color="#00E8A2"/>
<stop offset="1" stop-color="#00ADE8"/>
</linearGradient>
<linearGradient id="paint84_linear_711_118" x1="24.355" y1="199.045" x2="-117.497" y2="215.867" gradientUnits="userSpaceOnUse">
<stop stop-color="#00E8A2"/>
<stop offset="1" stop-color="#00ADE8"/>
</linearGradient>
<linearGradient id="paint85_linear_711_118" x1="-13.1825" y1="215.343" x2="-155.034" y2="232.166" gradientUnits="userSpaceOnUse">
<stop stop-color="#00E8A2"/>
<stop offset="1" stop-color="#00ADE8"/>
</linearGradient>
<linearGradient id="paint86_linear_711_118" x1="0.835876" y1="226.215" x2="1193.82" y2="226.215" gradientUnits="userSpaceOnUse">
<stop stop-color="#02040C"/>
<stop offset="0.196674" stop-color="#02040C" stop-opacity="0"/>
<stop offset="0.700463" stop-color="#02040C" stop-opacity="0"/>
<stop offset="0.968181" stop-color="#02040C"/>
</linearGradient>
</defs>
</svg>
