<svg width="1440" height="1604" viewBox="0 0 1440 1604" fill="none" xmlns="http://www.w3.org/2000/svg">
<path d="M-13.6836 584.07L294.583 412.338C334.052 390.35 382.081 390.35 421.55 412.338L1038.08 755.802C1077.55 777.79 1125.58 777.79 1165.05 755.802L1473.32 584.07M-13.6836 543.583L294.583 371.851C334.052 349.863 382.081 349.863 421.55 371.851L1038.08 715.315C1077.55 737.302 1125.58 737.302 1165.05 715.315L1473.32 543.583M-13.6836 503.096L294.583 331.364C334.052 309.376 382.081 309.376 421.55 331.364L1038.08 674.828C1077.55 696.815 1125.58 696.815 1165.05 674.828L1473.32 503.096M-13.6836 624.557L294.583 452.825C334.052 430.838 382.081 430.838 421.55 452.825L1038.08 796.289C1077.55 818.277 1125.58 818.277 1165.05 796.289L1473.32 624.557M-13.6836 665.044L294.583 493.312C334.052 471.325 382.081 471.325 421.55 493.312L1038.08 836.776C1077.55 858.764 1125.58 858.764 1165.05 836.776L1473.32 665.044M-13.6836 705.531L294.583 533.799C334.052 511.812 382.081 511.812 421.55 533.8L1038.08 877.263C1077.55 899.251 1125.58 899.251 1165.05 877.263L1473.32 705.531M-13.6836 831.658L294.583 659.926C334.052 637.938 382.081 637.938 421.55 659.926L1038.08 1003.39C1077.55 1025.38 1125.58 1025.38 1165.05 1003.39L1473.32 831.658M-13.6836 791.171L294.583 619.439C334.052 597.451 382.081 597.451 421.55 619.439L1038.08 962.903C1077.55 984.89 1125.58 984.89 1165.05 962.903L1473.32 791.171M-13.6836 750.683L294.583 578.951C334.052 556.964 382.081 556.964 421.55 578.951L1038.08 922.415C1077.55 944.403 1125.58 944.403 1165.05 922.415L1473.32 750.683M-13.6836 872.145L294.583 700.413C334.052 678.425 382.081 678.425 421.55 700.413L1038.08 1043.88C1077.55 1065.86 1125.58 1065.86 1165.05 1043.88L1473.32 872.145M-13.6836 912.632L294.583 740.9C334.052 718.913 382.081 718.913 421.55 740.9L1038.08 1084.36C1077.55 1106.35 1125.58 1106.35 1165.05 1084.36L1473.32 912.632M-13.6836 953.119L294.583 781.387C334.052 759.4 382.081 759.4 421.55 781.387L1038.08 1124.85C1077.55 1146.84 1125.58 1146.84 1165.05 1124.85L1473.32 953.119M-13.6836 1079.25L294.583 907.514C334.052 885.526 382.081 885.526 421.55 907.514L1038.08 1250.98C1077.55 1272.97 1125.58 1272.97 1165.05 1250.98L1473.32 1079.25M-13.6836 1038.76L294.583 867.026C334.052 845.039 382.081 845.039 421.55 867.026L1038.08 1210.49C1077.55 1232.48 1125.58 1232.48 1165.05 1210.49L1473.32 1038.76M-13.6836 998.271L294.583 826.539C334.052 804.552 382.081 804.552 421.55 826.539L1038.08 1170C1077.55 1191.99 1125.58 1191.99 1165.05 1170L1473.32 998.271M-13.6836 1119.73L294.583 948.001C334.052 926.013 382.081 926.013 421.55 948.001L1038.08 1291.46C1077.55 1313.45 1125.58 1313.45 1165.05 1291.46L1473.32 1119.73M-13.6836 1160.22L294.583 988.488C334.052 966.5 382.081 966.5 421.55 988.488L1038.08 1331.95C1077.55 1353.94 1125.58 1353.94 1165.05 1331.95L1473.32 1160.22M-13.6836 1200.71L294.583 1028.98C334.052 1006.99 382.081 1006.99 421.55 1028.98L1038.08 1372.44C1077.55 1394.43 1125.58 1394.43 1165.05 1372.44L1473.32 1200.71" stroke="url(#paint0_radial_715_120)" stroke-linecap="round" stroke-linejoin="round"/>
<g opacity="0.5" filter="url(#filter0_f_715_120)">
<ellipse rx="541.361" ry="457.987" transform="matrix(0.995678 0.0928759 0.199849 0.979827 761.49 801.957)" fill="url(#paint1_linear_715_120)"/>
</g>
<defs>
<filter id="filter0_f_715_120" x="-135.334" y="0.36084" width="1793.65" height="1603.19" filterUnits="userSpaceOnUse" color-interpolation-filters="sRGB">
<feFlood flood-opacity="0" result="BackgroundImageFix"/>
<feBlend mode="normal" in="SourceGraphic" in2="BackgroundImageFix" result="shape"/>
<feGaussianBlur stdDeviation="175" result="effect1_foregroundBlur_715_120"/>
</filter>
<radialGradient id="paint0_radial_715_120" cx="0" cy="0" r="1" gradientUnits="userSpaceOnUse" gradientTransform="translate(730.969 851.901) rotate(-180) scale(726.493 1006.64)">
<stop offset="0.170718" stop-color="white"/>
<stop offset="0.893806" stop-color="white" stop-opacity="0"/>
</radialGradient>
<linearGradient id="paint1_linear_715_120" x1="-46.3582" y1="426.968" x2="1063.09" y2="649.653" gradientUnits="userSpaceOnUse">
<stop stop-color="#149EE3"/>
<stop offset="1" stop-color="#5DFDB0"/>
</linearGradient>
</defs>
</svg>
